<svg width="20" height="22" viewBox="0 0 20 22" fill="none" xmlns="http://www.w3.org/2000/svg">
<path fill-rule="evenodd" clip-rule="evenodd" d="M13.8137 0C14.2283 0 14.5648 0.336493 14.5648 0.7511L14.5653 1.60015C16.0275 1.70041 17.242 2.20127 18.1015 3.06259C19.0399 4.00497 19.5336 5.35995 19.5286 6.98533V16.1217C19.5286 19.4586 17.4095 21.5316 13.9995 21.5316H5.5291C2.1191 21.5316 0 19.4296 0 16.0456V6.98333C0 3.83591 1.88982 1.8156 4.97197 1.6005L4.97258 0.7511C4.97258 0.336493 5.30908 0 5.72368 0C6.13829 0 6.47478 0.336493 6.47478 0.7511L6.47448 1.58132H13.0621L13.0626 0.7511C13.0626 0.336493 13.3991 0 13.8137 0ZM18.0264 8.91706H1.5022V16.0456C1.5022 18.6154 2.9323 20.0294 5.5291 20.0294H13.9995C16.5963 20.0294 18.0264 18.6414 18.0264 16.1217L18.0264 8.91706ZM14.222 15.2186C14.6366 15.2186 14.9731 15.5551 14.9731 15.9697C14.9731 16.3843 14.6366 16.7208 14.222 16.7208C13.8074 16.7208 13.4669 16.3843 13.4669 15.9697C13.4669 15.5551 13.7984 15.2186 14.213 15.2186H14.222ZM9.77802 15.2186C10.1926 15.2186 10.5291 15.5551 10.5291 15.9697C10.5291 16.3843 10.1926 16.7208 9.77802 16.7208C9.36342 16.7208 9.02292 16.3843 9.02292 15.9697C9.02292 15.5551 9.3544 15.2186 9.76901 15.2186H9.77802ZM5.3247 15.2186C5.73931 15.2186 6.0758 15.5551 6.0758 15.9697C6.0758 16.3843 5.73931 16.7208 5.3247 16.7208C4.91009 16.7208 4.56859 16.3843 4.56859 15.9697C4.56859 15.5551 4.90108 15.2186 5.31569 15.2186H5.3247ZM14.222 11.3262C14.6366 11.3262 14.9731 11.6627 14.9731 12.0773C14.9731 12.4919 14.6366 12.8284 14.222 12.8284C13.8074 12.8284 13.4669 12.4919 13.4669 12.0773C13.4669 11.6627 13.7984 11.3262 14.213 11.3262H14.222ZM9.77802 11.3262C10.1926 11.3262 10.5291 11.6627 10.5291 12.0773C10.5291 12.4919 10.1926 12.8284 9.77802 12.8284C9.36342 12.8284 9.02292 12.4919 9.02292 12.0773C9.02292 11.6627 9.3544 11.3262 9.76901 11.3262H9.77802ZM5.3247 11.3262C5.73931 11.3262 6.0758 11.6627 6.0758 12.0773C6.0758 12.4919 5.73931 12.8284 5.3247 12.8284C4.91009 12.8284 4.56859 12.4919 4.56859 12.0773C4.56859 11.6627 4.90108 11.3262 5.31569 11.3262H5.3247ZM13.0621 3.08352H6.47448L6.47478 4.04693C6.47478 4.46154 6.13829 4.79803 5.72368 4.79803C5.30908 4.79803 4.97258 4.46154 4.97258 4.04693L4.97205 3.10625C2.72853 3.29472 1.5022 4.65467 1.5022 6.98333V7.41486H18.0264L18.0264 6.98333C18.0304 5.74652 17.6979 4.78511 17.038 4.12414C16.4586 3.5431 15.6117 3.19608 14.5657 3.10673L14.5648 4.04693C14.5648 4.46154 14.2283 4.79803 13.8137 4.79803C13.3991 4.79803 13.0626 4.46154 13.0626 4.04693L13.0621 3.08352Z" fill="#373B5C"/>
</svg>
